<?xml version="1.0" encoding="utf-8"?>
<!-- Generator: Adobe Illustrator 27.8.1, SVG Export Plug-In . SVG Version: 6.00 Build 0)  -->
<svg version="1.1" id="Layer_1" xmlns="http://www.w3.org/2000/svg" xmlns:xlink="http://www.w3.org/1999/xlink" x="0px" y="0px"
	 viewBox="0 0 38 556.3" style="enable-background:new 0 0 38 556.3;" xml:space="preserve">
<style type="text/css">
	.st0{fill-rule:evenodd;clip-rule:evenodd;}
</style>
<path class="st0" d="M37.4,17.5c-0.8,0.8-2.1,0.8-2.9,0l-11-10.6v23.3c0,1.1-0.9,2-2.1,2s-2.1-0.9-2.1-2V6.9L8.2,17.5
	c-0.8,0.8-2.1,0.8-2.9,0c-0.8-0.8-0.8-2.1,0-2.8L19.8,0.6c0.8-0.8,2.1-0.8,2.9,0l14.6,14.1C38.2,15.5,38.2,16.7,37.4,17.5z"/>
<g>
	<g>
		<path d="M11.2,540.7c-1.2,0.1-2,0.7-2.7,1.7c-0.6,1-1,2.2-1,3.6c0,1,0.2,1.9,0.5,2.7c0.3,0.8,0.8,1.4,1.4,1.8s1.2,0.6,2,0.6
			c0.6,0,1.2-0.2,1.6-0.4s0.8-0.7,1.1-1.2s0.5-1,0.7-1.5c0.2-0.5,0.3-1,0.4-1.4l0.6-2.4c0.2-0.6,0.4-1.3,0.7-2
			c0.3-0.7,0.7-1.5,1.1-2.1c0.5-0.7,1.1-1.3,1.8-1.7c0.8-0.4,1.7-0.7,2.8-0.7c1.3,0,2.4,0.3,3.4,1c1,0.7,1.8,1.6,2.4,2.9
			c0.6,1.3,0.9,2.8,0.9,4.6c0,1.7-0.3,3.1-0.8,4.3c-0.5,1.2-1.3,2.2-2.2,2.9s-2.1,1.1-3.4,1.2v-2.9c0.9-0.1,1.6-0.4,2.2-0.9
			c0.6-0.5,1-1.2,1.3-2c0.3-0.8,0.4-1.7,0.4-2.6c0-1.1-0.2-2-0.5-2.9c-0.4-0.9-0.8-1.5-1.5-2c-0.6-0.5-1.4-0.8-2.2-0.8
			c-0.8,0-1.4,0.2-1.9,0.6c-0.5,0.4-0.9,1-1.2,1.7c-0.3,0.7-0.6,1.5-0.8,2.3l-0.8,2.9c-0.5,1.8-1.3,3.3-2.2,4.3s-2.2,1.6-3.8,1.6
			c-1.3,0-2.4-0.4-3.4-1.1c-1-0.7-1.7-1.7-2.3-2.9s-0.8-2.5-0.8-4c0-1.5,0.3-2.8,0.8-4c0.5-1.2,1.3-2.1,2.2-2.8c0.9-0.7,2-1,3.1-1.1
			V540.7z"/>
		<path d="M7,532.2v-2.7h16.6c0.8,0,1.3-0.1,1.7-0.3s0.6-0.5,0.8-0.9c0.1-0.4,0.2-0.7,0.2-1.1c0-0.3,0-0.5-0.1-0.7s-0.1-0.3-0.1-0.5
			l2.4-0.5c0.1,0.2,0.1,0.4,0.2,0.8c0.1,0.3,0.1,0.7,0.1,1.2c0,0.8-0.2,1.5-0.5,2.2c-0.3,0.7-0.8,1.3-1.5,1.8s-1.5,0.7-2.5,0.7H7z
			 M11.2,525.8h2.3v9h-2.3V525.8z"/>
		<path d="M29,514.4c0,1.7-0.4,3.1-1.1,4.3s-1.8,2.2-3.1,2.8s-2.9,1-4.7,1s-3.4-0.3-4.7-1c-1.4-0.7-2.4-1.6-3.2-2.8
			s-1.2-2.6-1.2-4.1c0-0.9,0.2-1.8,0.5-2.7c0.3-0.9,0.8-1.7,1.5-2.4c0.7-0.7,1.6-1.3,2.7-1.7c1.1-0.4,2.5-0.6,4.1-0.6h1.1v13.5h-2.3
			v-10.7c-1,0-1.9,0.2-2.6,0.6c-0.8,0.4-1.4,0.9-1.8,1.7c-0.4,0.7-0.7,1.6-0.7,2.5c0,1.1,0.3,2,0.8,2.8c0.5,0.8,1.2,1.4,2.1,1.8
			c0.8,0.4,1.7,0.6,2.7,0.6h1.5c1.3,0,2.4-0.2,3.3-0.7c0.9-0.5,1.6-1.1,2.1-1.9c0.5-0.8,0.7-1.8,0.7-2.9c0-0.7-0.1-1.3-0.3-1.9
			c-0.2-0.6-0.5-1.1-0.9-1.5c-0.4-0.4-0.9-0.7-1.5-1l0.7-2.6c0.9,0.3,1.7,0.7,2.3,1.4c0.7,0.6,1.2,1.4,1.5,2.4
			C28.8,512.2,29,513.3,29,514.4z"/>
		<path d="M5.4,500.4h23.3v2.7H5.4V500.4z"/>
		<path d="M5.4,492.8h23.3v2.7H5.4V492.8z"/>
		<path d="M8.3,486.6c0,0.5-0.2,1-0.5,1.3c-0.4,0.4-0.8,0.6-1.3,0.6s-0.9-0.2-1.3-0.6s-0.5-0.8-0.5-1.3s0.2-1,0.5-1.3
			s0.8-0.6,1.3-0.6s0.9,0.2,1.3,0.6C8.1,485.6,8.3,486.1,8.3,486.6z M28.6,487.9H11.2v-2.7h17.5V487.9z"/>
		<path d="M18.1,477.7h10.5v2.7H11.2v-2.6h2.7v-0.2c-0.9-0.4-1.6-1-2.1-1.9c-0.5-0.8-0.8-1.9-0.8-3.2c0-1.2,0.2-2.2,0.7-3.1
			c0.5-0.9,1.2-1.6,2.2-2.1s2.2-0.7,3.7-0.7h11.1v2.7H17.7c-1.4,0-2.4,0.4-3.2,1.1s-1.2,1.7-1.2,2.9c0,0.9,0.2,1.6,0.6,2.3
			c0.4,0.7,0.9,1.2,1.6,1.6S17.1,477.7,18.1,477.7z"/>
		<path d="M35.5,454.6c0,1.3-0.2,2.4-0.5,3.3c-0.3,0.9-0.8,1.7-1.3,2.3s-1.1,1.1-1.7,1.5l-1.5-2.1c0.3-0.2,0.7-0.5,1.1-0.9
			c0.4-0.4,0.8-0.9,1.1-1.5c0.3-0.6,0.5-1.5,0.5-2.6c0-1.4-0.3-2.6-1-3.5c-0.7-0.9-1.8-1.4-3.2-1.4h-3.5v0.2
			c0.3,0.2,0.7,0.5,1.2,0.8c0.5,0.4,0.9,0.9,1.2,1.5c0.4,0.7,0.5,1.6,0.5,2.7c0,1.4-0.3,2.7-1,3.8c-0.7,1.1-1.6,2-2.9,2.6
			c-1.3,0.6-2.8,1-4.6,1c-1.8,0-3.3-0.3-4.7-0.9c-1.3-0.6-2.4-1.5-3.1-2.6c-0.7-1.1-1.1-2.4-1.1-3.9c0-1.1,0.2-2,0.6-2.7
			c0.4-0.7,0.8-1.2,1.3-1.5c0.5-0.4,0.9-0.6,1.2-0.8v-0.3h-2.8V447h18c1.5,0,2.7,0.3,3.7,1s1.6,1.6,2.1,2.7
			C35.3,451.9,35.5,453.2,35.5,454.6z M26,454.7c0-1.1-0.2-2-0.7-2.7c-0.5-0.7-1.2-1.3-2.1-1.7c-0.9-0.4-2-0.6-3.3-0.6
			c-1.3,0-2.4,0.2-3.3,0.6s-1.7,0.9-2.3,1.7c-0.5,0.7-0.8,1.7-0.8,2.8c0,1.1,0.3,2.1,0.9,2.8c0.6,0.8,1.3,1.3,2.3,1.7s2,0.6,3.2,0.6
			c1.2,0,2.3-0.2,3.2-0.6c0.9-0.4,1.7-1,2.2-1.7S26,455.8,26,454.7z"/>
		<path d="M29,434.8c0,1.7-0.4,3.1-1.1,4.3s-1.8,2.2-3.1,2.8s-2.9,1-4.7,1s-3.4-0.3-4.7-1c-1.4-0.7-2.4-1.6-3.2-2.8
			s-1.2-2.6-1.2-4.1c0-0.9,0.2-1.8,0.5-2.7c0.3-0.9,0.8-1.7,1.5-2.4c0.7-0.7,1.6-1.3,2.7-1.7c1.1-0.4,2.5-0.6,4.1-0.6h1.1V441h-2.3
			v-10.7c-1,0-1.9,0.2-2.6,0.6c-0.8,0.4-1.4,0.9-1.8,1.7c-0.4,0.7-0.7,1.6-0.7,2.5c0,1.1,0.3,2,0.8,2.8c0.5,0.8,1.2,1.4,2.1,1.8
			c0.8,0.4,1.7,0.6,2.7,0.6h1.5c1.3,0,2.4-0.2,3.3-0.7c0.9-0.5,1.6-1.1,2.1-1.9c0.5-0.8,0.7-1.8,0.7-2.9c0-0.7-0.1-1.3-0.3-1.9
			c-0.2-0.6-0.5-1.1-0.9-1.5c-0.4-0.4-0.9-0.7-1.5-1l0.7-2.6c0.9,0.3,1.7,0.7,2.3,1.4c0.7,0.6,1.2,1.4,1.5,2.4S29,433.6,29,434.8z"
			/>
		<path d="M18.1,420.8h10.5v2.7H11.2v-2.6h2.7v-0.2c-0.9-0.4-1.6-1-2.1-1.9c-0.5-0.8-0.8-1.9-0.8-3.2c0-1.2,0.2-2.2,0.7-3.1
			c0.5-0.9,1.2-1.6,2.2-2.1s2.2-0.7,3.7-0.7h11.1v2.7H17.7c-1.4,0-2.4,0.4-3.2,1.1s-1.2,1.7-1.2,2.9c0,0.9,0.2,1.6,0.6,2.3
			c0.4,0.7,0.9,1.2,1.6,1.6S17.1,420.8,18.1,420.8z"/>
		<path d="M28.6,395.8H11.2v-2.6h2.7v-0.2c-0.9-0.4-1.7-1-2.2-1.8s-0.8-1.8-0.8-2.9c0-1.2,0.3-2.1,0.8-2.9c0.5-0.8,1.2-1.4,2.2-1.8
			v-0.2c-0.9-0.4-1.6-1.1-2.2-2c-0.5-0.9-0.8-2-0.8-3.2c0-1.6,0.5-2.8,1.5-3.8s2.5-1.5,4.5-1.5h11.7v2.7H17c-1.3,0-2.2,0.4-2.8,1.1
			c-0.6,0.7-0.8,1.5-0.8,2.5c0,1.2,0.4,2.2,1.1,2.9c0.7,0.7,1.7,1,2.8,1h11.4v2.7h-12c-1,0-1.8,0.3-2.4,1c-0.6,0.6-0.9,1.5-0.9,2.5
			c0,0.7,0.2,1.3,0.6,1.9c0.4,0.6,0.9,1.1,1.5,1.5s1.4,0.6,2.3,0.6h10.9V395.8z"/>
		<path d="M29,360.6c0,1.7-0.4,3.1-1.1,4.3s-1.8,2.2-3.1,2.8s-2.9,1-4.7,1s-3.4-0.3-4.7-1c-1.4-0.7-2.4-1.6-3.2-2.8
			s-1.2-2.6-1.2-4.1c0-0.9,0.2-1.8,0.5-2.7c0.3-0.9,0.8-1.7,1.5-2.4c0.7-0.7,1.6-1.3,2.7-1.7c1.1-0.4,2.5-0.6,4.1-0.6h1.1v13.5h-2.3
			v-10.7c-1,0-1.9,0.2-2.6,0.6c-0.8,0.4-1.4,0.9-1.8,1.7c-0.4,0.7-0.7,1.6-0.7,2.5c0,1.1,0.3,2,0.8,2.8c0.5,0.8,1.2,1.4,2.1,1.8
			c0.8,0.4,1.7,0.6,2.7,0.6h1.5c1.3,0,2.4-0.2,3.3-0.7c0.9-0.5,1.6-1.1,2.1-1.9c0.5-0.8,0.7-1.8,0.7-2.9c0-0.7-0.1-1.3-0.3-1.9
			c-0.2-0.6-0.5-1.1-0.9-1.5c-0.4-0.4-0.9-0.7-1.5-1l0.7-2.6c0.9,0.3,1.7,0.7,2.3,1.4c0.7,0.6,1.2,1.4,1.5,2.4S29,359.4,29,360.6z"
			/>
		<path d="M7,348.1v-2.7h16.6c0.8,0,1.3-0.1,1.7-0.3s0.6-0.5,0.8-0.9c0.1-0.4,0.2-0.7,0.2-1.1c0-0.3,0-0.5-0.1-0.7s-0.1-0.3-0.1-0.5
			l2.4-0.5c0.1,0.2,0.1,0.4,0.2,0.8c0.1,0.3,0.1,0.7,0.1,1.2c0,0.8-0.2,1.5-0.5,2.2c-0.3,0.7-0.8,1.3-1.5,1.8s-1.5,0.7-2.5,0.7H7z
			 M11.2,341.7h2.3v9h-2.3V341.7z"/>
		<path d="M29,321.6c0,1.6-0.4,3-1.1,4.1s-1.8,2.1-3.1,2.8s-2.9,1-4.7,1c-1.8,0-3.4-0.3-4.8-1c-1.4-0.7-2.4-1.6-3.2-2.8
			s-1.1-2.6-1.1-4.1c0-1.6,0.4-3,1.1-4.1s1.8-2.1,3.2-2.8c1.4-0.7,2.9-1,4.8-1c1.8,0,3.4,0.3,4.7,1s2.4,1.6,3.1,2.8S29,320,29,321.6
			z M26.6,321.6c0-1.2-0.3-2.2-0.9-3s-1.4-1.3-2.4-1.7s-2.1-0.6-3.2-0.6c-1.2,0-2.3,0.2-3.3,0.6s-1.8,0.9-2.4,1.7s-0.9,1.8-0.9,3
			c0,1.2,0.3,2.2,0.9,3s1.4,1.3,2.4,1.7s2.1,0.6,3.3,0.6c1.2,0,2.2-0.2,3.2-0.6s1.8-0.9,2.4-1.7S26.6,322.8,26.6,321.6z"/>
		<path d="M11.2,295.3l17.5,6.5v2.7l-17.5,6.5V308l13.9-4.8V303l-13.9-4.8V295.3z"/>
		<path d="M29,284.4c0,1.7-0.4,3.1-1.1,4.3s-1.8,2.2-3.1,2.8s-2.9,1-4.7,1s-3.4-0.3-4.7-1c-1.4-0.7-2.4-1.6-3.2-2.8
			s-1.2-2.6-1.2-4.1c0-0.9,0.2-1.8,0.5-2.7c0.3-0.9,0.8-1.7,1.5-2.4c0.7-0.7,1.6-1.3,2.7-1.7c1.1-0.4,2.5-0.6,4.1-0.6h1.1v13.5h-2.3
			v-10.7c-1,0-1.9,0.2-2.6,0.6c-0.8,0.4-1.4,0.9-1.8,1.7c-0.4,0.7-0.7,1.6-0.7,2.5c0,1.1,0.3,2,0.8,2.8c0.5,0.8,1.2,1.4,2.1,1.8
			c0.8,0.4,1.7,0.6,2.7,0.6h1.5c1.3,0,2.4-0.2,3.3-0.7c0.9-0.5,1.6-1.1,2.1-1.9c0.5-0.8,0.7-1.8,0.7-2.9c0-0.7-0.1-1.3-0.3-1.9
			c-0.2-0.6-0.5-1.1-0.9-1.5c-0.4-0.4-0.9-0.7-1.5-1l0.7-2.6c0.9,0.3,1.7,0.7,2.3,1.4c0.7,0.6,1.2,1.4,1.5,2.4S29,283.3,29,284.4z"
			/>
		<path d="M28.6,273.1H11.2v-2.6h2.6v-0.2c-0.9-0.3-1.6-0.9-2.1-1.7c-0.5-0.8-0.8-1.8-0.8-2.8c0-0.2,0-0.4,0-0.7c0-0.3,0-0.5,0-0.7
			h2.7c0,0.1-0.1,0.3-0.1,0.6c0,0.3-0.1,0.7-0.1,1c0,0.8,0.2,1.6,0.5,2.3c0.4,0.7,0.8,1.2,1.5,1.6s1.3,0.6,2.1,0.6h11V273.1z"/>
		<path d="M29,253.9c0,1.7-0.4,3.1-1.1,4.3s-1.8,2.2-3.1,2.8s-2.9,1-4.7,1s-3.4-0.3-4.7-1c-1.4-0.7-2.4-1.6-3.2-2.8
			s-1.2-2.6-1.2-4.1c0-0.9,0.2-1.8,0.5-2.7c0.3-0.9,0.8-1.7,1.5-2.4c0.7-0.7,1.6-1.3,2.7-1.7c1.1-0.4,2.5-0.6,4.1-0.6h1.1v13.5h-2.3
			v-10.7c-1,0-1.9,0.2-2.6,0.6c-0.8,0.4-1.4,0.9-1.8,1.7c-0.4,0.7-0.7,1.6-0.7,2.5c0,1.1,0.3,2,0.8,2.8c0.5,0.8,1.2,1.4,2.1,1.8
			c0.8,0.4,1.7,0.6,2.7,0.6h1.5c1.3,0,2.4-0.2,3.3-0.7c0.9-0.5,1.6-1.1,2.1-1.9c0.5-0.8,0.7-1.8,0.7-2.9c0-0.7-0.1-1.3-0.3-1.9
			c-0.2-0.6-0.5-1.1-0.9-1.5c-0.4-0.4-0.9-0.7-1.5-1l0.7-2.6c0.9,0.3,1.7,0.7,2.3,1.4c0.7,0.6,1.2,1.4,1.5,2.4S29,252.7,29,253.9z"
			/>
		<path d="M29,235.3c0,1.7-0.4,3.1-1.1,4.3s-1.8,2.2-3.1,2.8s-2.9,1-4.7,1s-3.4-0.3-4.7-1c-1.4-0.7-2.4-1.6-3.2-2.8
			s-1.2-2.6-1.2-4.1c0-0.9,0.2-1.8,0.5-2.7c0.3-0.9,0.8-1.7,1.5-2.4c0.7-0.7,1.6-1.3,2.7-1.7c1.1-0.4,2.5-0.6,4.1-0.6h1.1v13.5h-2.3
			v-10.7c-1,0-1.9,0.2-2.6,0.6c-0.8,0.4-1.4,0.9-1.8,1.7c-0.4,0.7-0.7,1.6-0.7,2.5c0,1.1,0.3,2,0.8,2.8c0.5,0.8,1.2,1.4,2.1,1.8
			c0.8,0.4,1.7,0.6,2.7,0.6h1.5c1.3,0,2.4-0.2,3.3-0.7c0.9-0.5,1.6-1.1,2.1-1.9c0.5-0.8,0.7-1.8,0.7-2.9c0-0.7-0.1-1.3-0.3-1.9
			c-0.2-0.6-0.5-1.1-0.9-1.5c-0.4-0.4-0.9-0.7-1.5-1l0.7-2.6c0.9,0.3,1.7,0.7,2.3,1.4c0.7,0.6,1.2,1.4,1.5,2.4S29,234.1,29,235.3z"
			/>
		<path d="M18.1,221.3h10.5v2.7H11.2v-2.6h2.7v-0.2c-0.9-0.4-1.6-1-2.1-1.9c-0.5-0.8-0.8-1.9-0.8-3.2c0-1.2,0.2-2.2,0.7-3.1
			c0.5-0.9,1.2-1.6,2.2-2.1s2.2-0.7,3.7-0.7h11.1v2.7H17.7c-1.4,0-2.4,0.4-3.2,1.1s-1.2,1.7-1.2,2.9c0,0.9,0.2,1.6,0.6,2.3
			c0.4,0.7,0.9,1.2,1.6,1.6S17.1,221.3,18.1,221.3z"/>
		<path d="M15.1,192.9l0.7,2.4c-0.4,0.2-0.8,0.4-1.2,0.7c-0.4,0.3-0.7,0.7-0.9,1.2s-0.4,1.1-0.4,1.9c0,1.1,0.2,2,0.7,2.7
			c0.5,0.7,1.1,1.1,1.9,1.1c0.7,0,1.2-0.2,1.6-0.7c0.4-0.5,0.7-1.2,1-2.3l0.6-2.6c0.4-1.6,1-2.7,1.7-3.5c0.8-0.8,1.8-1.1,3-1.1
			c1,0,1.9,0.3,2.7,0.9s1.4,1.4,1.9,2.4c0.5,1,0.7,2.2,0.7,3.6c0,1.8-0.4,3.3-1.2,4.4c-0.8,1.2-1.9,1.9-3.4,2.2l-0.6-2.5
			c0.9-0.2,1.6-0.7,2.1-1.4c0.5-0.7,0.7-1.6,0.7-2.7c0-1.2-0.3-2.2-0.8-3c-0.5-0.7-1.2-1.1-1.9-1.1c-0.6,0-1.1,0.2-1.5,0.6
			c-0.4,0.4-0.7,1.1-0.9,2l-0.7,2.9c-0.4,1.6-1,2.8-1.8,3.5c-0.8,0.7-1.8,1.1-3,1.1c-1,0-1.9-0.3-2.6-0.8s-1.4-1.3-1.8-2.3
			S11,200.3,11,199c0-1.7,0.4-3.1,1.1-4.1C12.8,194,13.8,193.3,15.1,192.9z"/>
		<path d="M7,187.3v-2.7h16.6c0.8,0,1.3-0.1,1.7-0.3s0.6-0.5,0.8-0.9c0.1-0.4,0.2-0.7,0.2-1.1c0-0.3,0-0.5-0.1-0.7s-0.1-0.3-0.1-0.5
			l2.4-0.5c0.1,0.2,0.1,0.4,0.2,0.8c0.1,0.3,0.1,0.7,0.1,1.2c0,0.8-0.2,1.5-0.5,2.2c-0.3,0.7-0.8,1.3-1.5,1.8s-1.5,0.7-2.5,0.7H7z
			 M11.2,180.9h2.3v9h-2.3V180.9z"/>
		<path d="M29,169.5c0,1.7-0.4,3.1-1.1,4.3s-1.8,2.2-3.1,2.8s-2.9,1-4.7,1s-3.4-0.3-4.7-1c-1.4-0.7-2.4-1.6-3.2-2.8
			s-1.2-2.6-1.2-4.1c0-0.9,0.2-1.8,0.5-2.7c0.3-0.9,0.8-1.7,1.5-2.4c0.7-0.7,1.6-1.3,2.7-1.7c1.1-0.4,2.5-0.6,4.1-0.6h1.1v13.5h-2.3
			V165c-1,0-1.9,0.2-2.6,0.6c-0.8,0.4-1.4,0.9-1.8,1.7c-0.4,0.7-0.7,1.6-0.7,2.5c0,1.1,0.3,2,0.8,2.8c0.5,0.8,1.2,1.4,2.1,1.8
			c0.8,0.4,1.7,0.6,2.7,0.6h1.5c1.3,0,2.4-0.2,3.3-0.7c0.9-0.5,1.6-1.1,2.1-1.9c0.5-0.8,0.7-1.8,0.7-2.9c0-0.7-0.1-1.3-0.3-1.9
			c-0.2-0.6-0.5-1.1-0.9-1.5c-0.4-0.4-0.9-0.7-1.5-1l0.7-2.6c0.9,0.3,1.7,0.7,2.3,1.4c0.7,0.6,1.2,1.4,1.5,2.4S29,168.4,29,169.5z"
			/>
		<path d="M28.6,158.2H11.2v-2.6h2.7v-0.2c-0.9-0.4-1.7-1-2.2-1.8s-0.8-1.8-0.8-2.9c0-1.2,0.3-2.1,0.8-2.9c0.5-0.8,1.2-1.4,2.2-1.8
			v-0.2c-0.9-0.4-1.6-1.1-2.2-2c-0.5-0.9-0.8-2-0.8-3.2c0-1.6,0.5-2.8,1.5-3.8s2.5-1.5,4.5-1.5h11.7v2.7H17c-1.3,0-2.2,0.4-2.8,1.1
			c-0.6,0.7-0.8,1.5-0.8,2.5c0,1.2,0.4,2.2,1.1,2.9c0.7,0.7,1.7,1,2.8,1h11.4v2.7h-12c-1,0-1.8,0.3-2.4,1c-0.6,0.6-0.9,1.5-0.9,2.5
			c0,0.7,0.2,1.3,0.6,1.9c0.4,0.6,0.9,1.1,1.5,1.5s1.4,0.6,2.3,0.6h10.9V158.2z"/>
		<path d="M28.6,130.4H11.2v-2.6h2.7v-0.2c-0.9-0.4-1.7-1-2.2-1.8S11,124,11,122.9c0-1.2,0.3-2.1,0.8-2.9c0.5-0.8,1.2-1.4,2.2-1.8
			V118c-0.9-0.4-1.6-1.1-2.2-2c-0.5-0.9-0.8-2-0.8-3.2c0-1.6,0.5-2.8,1.5-3.8s2.5-1.5,4.5-1.5h11.7v2.7H17c-1.3,0-2.2,0.4-2.8,1.1
			c-0.6,0.7-0.8,1.5-0.8,2.5c0,1.2,0.4,2.2,1.1,2.9c0.7,0.7,1.7,1,2.8,1h11.4v2.7h-12c-1,0-1.8,0.3-2.4,1c-0.6,0.6-0.9,1.5-0.9,2.5
			c0,0.7,0.2,1.3,0.6,1.9c0.4,0.6,0.9,1.1,1.5,1.5s1.4,0.6,2.3,0.6h10.9V130.4z"/>
		<path d="M8.3,101.2c0,0.5-0.2,1-0.5,1.3c-0.4,0.4-0.8,0.6-1.3,0.6s-0.9-0.2-1.3-0.6s-0.5-0.8-0.5-1.3s0.2-1,0.5-1.3
			s0.8-0.6,1.3-0.6s0.9,0.2,1.3,0.6C8.1,100.2,8.3,100.7,8.3,101.2z M28.6,102.6H11.2v-2.7h17.5V102.6z"/>
		<path d="M18.1,92.3h10.5V95H11.2v-2.6h2.7v-0.2c-0.9-0.4-1.6-1-2.1-1.9c-0.5-0.8-0.8-1.9-0.8-3.2c0-1.2,0.2-2.2,0.7-3.1
			c0.5-0.9,1.2-1.6,2.2-2.1s2.2-0.7,3.7-0.7h11.1v2.7H17.7c-1.4,0-2.4,0.4-3.2,1.1s-1.2,1.7-1.2,2.9c0,0.9,0.2,1.6,0.6,2.3
			c0.4,0.7,0.9,1.2,1.6,1.6S17.1,92.3,18.1,92.3z"/>
		<path d="M35.5,69.2c0,1.3-0.2,2.4-0.5,3.3c-0.3,0.9-0.8,1.7-1.3,2.3S32.7,76,32,76.4l-1.5-2.1c0.3-0.2,0.7-0.5,1.1-0.9
			c0.4-0.4,0.8-0.9,1.1-1.5c0.3-0.6,0.5-1.5,0.5-2.6c0-1.4-0.3-2.6-1-3.5c-0.7-0.9-1.8-1.4-3.2-1.4h-3.5v0.2
			c0.3,0.2,0.7,0.5,1.2,0.8c0.5,0.4,0.9,0.9,1.2,1.5c0.4,0.7,0.5,1.6,0.5,2.7c0,1.4-0.3,2.7-1,3.8c-0.7,1.1-1.6,2-2.9,2.6
			c-1.3,0.6-2.8,1-4.6,1c-1.8,0-3.3-0.3-4.7-0.9c-1.3-0.6-2.4-1.5-3.1-2.6c-0.7-1.1-1.1-2.4-1.1-3.9c0-1.1,0.2-2,0.6-2.7
			c0.4-0.7,0.8-1.2,1.3-1.5c0.5-0.4,0.9-0.6,1.2-0.8v-0.3h-2.8v-2.6h18c1.5,0,2.7,0.3,3.7,1s1.6,1.6,2.1,2.7
			C35.3,66.6,35.5,67.8,35.5,69.2z M26,69.3c0-1.1-0.2-2-0.7-2.7c-0.5-0.7-1.2-1.3-2.1-1.7c-0.9-0.4-2-0.6-3.3-0.6
			c-1.3,0-2.4,0.2-3.3,0.6s-1.7,0.9-2.3,1.7c-0.5,0.7-0.8,1.7-0.8,2.8c0,1.1,0.3,2.1,0.9,2.8c0.6,0.8,1.3,1.3,2.3,1.7s2,0.6,3.2,0.6
			c1.2,0,2.3-0.2,3.2-0.6c0.9-0.4,1.7-1,2.2-1.7S26,70.4,26,69.3z"/>
	</g>
</g>
</svg>
