<?xml version="1.0" encoding="utf-8"?>
<!-- Generator: Adobe Illustrator 27.8.1, SVG Export Plug-In . SVG Version: 6.00 Build 0)  -->
<svg version="1.1" id="Layer_1" xmlns="http://www.w3.org/2000/svg" xmlns:xlink="http://www.w3.org/1999/xlink" x="0px" y="0px"
	 viewBox="0 0 37.9 482.3" style="enable-background:new 0 0 37.9 482.3;" xml:space="preserve">
<style type="text/css">
	.st0{fill-rule:evenodd;clip-rule:evenodd;}
</style>
<path class="st0" d="M1.5,464.8c0.8-0.8,2.1-0.8,2.9,0l11,10.6v-23.3c0-1.1,0.9-2,2.1-2s2.1,0.9,2.1,2v23.3l11.1-10.6
	c0.8-0.8,2.1-0.8,2.9,0c0.8,0.8,0.8,2.1,0,2.8l-14.5,14.1c-0.8,0.8-2.1,0.8-2.9,0L1.6,467.6C0.7,466.8,0.7,465.6,1.5,464.8z"/>
<g>
	<g>
		<path d="M10.2,407.5c-1.2,0.1-2,0.7-2.7,1.7c-0.6,1-1,2.2-1,3.6c0,1,0.2,1.9,0.5,2.7c0.3,0.8,0.8,1.4,1.4,1.8s1.2,0.6,2,0.6
			c0.6,0,1.2-0.2,1.6-0.4s0.8-0.7,1.1-1.2s0.5-1,0.7-1.5c0.2-0.5,0.3-1,0.4-1.4l0.6-2.4c0.2-0.6,0.4-1.3,0.7-2
			c0.3-0.7,0.7-1.5,1.1-2.1c0.5-0.7,1.1-1.3,1.8-1.7c0.8-0.4,1.7-0.7,2.8-0.7c1.3,0,2.4,0.3,3.4,1c1,0.7,1.8,1.6,2.4,2.9
			c0.6,1.3,0.9,2.8,0.9,4.6c0,1.7-0.3,3.1-0.8,4.3c-0.5,1.2-1.3,2.2-2.2,2.9s-2.1,1.1-3.4,1.2v-2.9c0.9-0.1,1.6-0.4,2.2-0.9
			c0.6-0.5,1-1.2,1.3-2c0.3-0.8,0.4-1.7,0.4-2.6c0-1.1-0.2-2-0.5-2.9c-0.4-0.9-0.8-1.5-1.5-2c-0.6-0.5-1.4-0.8-2.2-0.8
			c-0.8,0-1.4,0.2-1.9,0.6c-0.5,0.4-0.9,1-1.2,1.7c-0.3,0.7-0.6,1.5-0.8,2.3l-0.8,2.9c-0.5,1.8-1.3,3.3-2.2,4.3s-2.2,1.6-3.8,1.6
			c-1.3,0-2.4-0.4-3.4-1.1c-1-0.7-1.7-1.7-2.3-2.9s-0.8-2.5-0.8-4c0-1.5,0.3-2.8,0.8-4c0.5-1.2,1.3-2.1,2.2-2.8c0.9-0.7,2-1,3.1-1.1
			V407.5z"/>
		<path d="M6,399v-2.7h16.6c0.8,0,1.3-0.1,1.7-0.3s0.6-0.5,0.8-0.9c0.1-0.4,0.2-0.7,0.2-1.1c0-0.3,0-0.5-0.1-0.7s-0.1-0.3-0.1-0.5
			l2.4-0.5c0.1,0.2,0.1,0.4,0.2,0.8c0.1,0.3,0.1,0.7,0.1,1.2c0,0.8-0.2,1.5-0.5,2.2c-0.3,0.7-0.8,1.3-1.5,1.8s-1.5,0.7-2.5,0.7H6z
			 M10.2,392.6h2.3v9h-2.3V392.6z"/>
		<path d="M28,381.3c0,1.7-0.4,3.1-1.1,4.3s-1.8,2.2-3.1,2.8s-2.9,1-4.7,1s-3.4-0.3-4.7-1c-1.4-0.7-2.4-1.6-3.2-2.8
			s-1.2-2.6-1.2-4.1c0-0.9,0.2-1.8,0.5-2.7c0.3-0.9,0.8-1.7,1.5-2.4c0.7-0.7,1.6-1.3,2.7-1.7c1.1-0.4,2.5-0.6,4.1-0.6h1.1v13.5h-2.3
			v-10.7c-1,0-1.9,0.2-2.6,0.6c-0.8,0.4-1.4,0.9-1.8,1.7c-0.4,0.7-0.7,1.6-0.7,2.5c0,1.1,0.3,2,0.8,2.8c0.5,0.8,1.2,1.4,2.1,1.8
			c0.8,0.4,1.7,0.6,2.7,0.6h1.5c1.3,0,2.4-0.2,3.3-0.7c0.9-0.5,1.6-1.1,2.1-1.9c0.5-0.8,0.7-1.8,0.7-2.9c0-0.7-0.1-1.3-0.3-1.9
			c-0.2-0.6-0.5-1.1-0.9-1.5c-0.4-0.4-0.9-0.7-1.5-1l0.7-2.6c0.9,0.3,1.7,0.7,2.3,1.4c0.7,0.6,1.2,1.4,1.5,2.4S28,380.1,28,381.3z"
			/>
		<path d="M4.4,367.3h23.3v2.7H4.4V367.3z"/>
		<path d="M4.4,359.7h23.3v2.7H4.4V359.7z"/>
		<path d="M7.3,353.4c0,0.5-0.2,1-0.5,1.3c-0.4,0.4-0.8,0.6-1.3,0.6s-0.9-0.2-1.3-0.6s-0.5-0.8-0.5-1.3s0.2-1,0.5-1.3
			s0.8-0.6,1.3-0.6s0.9,0.2,1.3,0.6C7.1,352.4,7.3,352.9,7.3,353.4z M27.6,354.8H10.2v-2.7h17.5V354.8z"/>
		<path d="M17.1,344.5h10.5v2.7H10.2v-2.6h2.7v-0.2c-0.9-0.4-1.6-1-2.1-1.9c-0.5-0.8-0.8-1.9-0.8-3.2c0-1.2,0.2-2.2,0.7-3.1
			c0.5-0.9,1.2-1.6,2.2-2.1s2.2-0.7,3.7-0.7h11.1v2.7H16.7c-1.4,0-2.4,0.4-3.2,1.1s-1.2,1.7-1.2,2.9c0,0.9,0.2,1.6,0.6,2.3
			c0.4,0.7,0.9,1.2,1.6,1.6S16.1,344.5,17.1,344.5z"/>
		<path d="M34.5,321.4c0,1.3-0.2,2.4-0.5,3.3c-0.3,0.9-0.8,1.7-1.3,2.3s-1.1,1.1-1.7,1.5l-1.5-2.1c0.3-0.2,0.7-0.5,1.1-0.9
			c0.4-0.4,0.8-0.9,1.1-1.5c0.3-0.6,0.5-1.5,0.5-2.6c0-1.4-0.3-2.6-1-3.5c-0.7-0.9-1.8-1.4-3.2-1.4h-3.5v0.2
			c0.3,0.2,0.7,0.5,1.2,0.8c0.5,0.4,0.9,0.9,1.2,1.5c0.4,0.7,0.5,1.6,0.5,2.7c0,1.4-0.3,2.7-1,3.8c-0.7,1.1-1.6,2-2.9,2.6
			c-1.3,0.6-2.8,1-4.6,1c-1.8,0-3.3-0.3-4.7-0.9c-1.3-0.6-2.4-1.5-3.1-2.6c-0.7-1.1-1.1-2.4-1.1-3.9c0-1.1,0.2-2,0.6-2.7
			c0.4-0.7,0.8-1.2,1.3-1.5c0.5-0.4,0.9-0.6,1.2-0.8v-0.3h-2.8v-2.6h18c1.5,0,2.7,0.3,3.7,1s1.6,1.6,2.1,2.7
			C34.3,318.7,34.5,320,34.5,321.4z M25,321.5c0-1.1-0.2-2-0.7-2.7c-0.5-0.7-1.2-1.3-2.1-1.7c-0.9-0.4-2-0.6-3.3-0.6
			c-1.3,0-2.4,0.2-3.3,0.6s-1.7,0.9-2.3,1.7c-0.5,0.7-0.8,1.7-0.8,2.8c0,1.1,0.3,2.1,0.9,2.8c0.6,0.8,1.3,1.3,2.3,1.7s2,0.6,3.2,0.6
			c1.2,0,2.3-0.2,3.2-0.6c0.9-0.4,1.7-1,2.2-1.7S25,322.6,25,321.5z"/>
		<path d="M28,301.6c0,1.7-0.4,3.1-1.1,4.3s-1.8,2.2-3.1,2.8s-2.9,1-4.7,1s-3.4-0.3-4.7-1c-1.4-0.7-2.4-1.6-3.2-2.8
			s-1.2-2.6-1.2-4.1c0-0.9,0.2-1.8,0.5-2.7c0.3-0.9,0.8-1.7,1.5-2.4c0.7-0.7,1.6-1.3,2.7-1.7c1.1-0.4,2.5-0.6,4.1-0.6h1.1v13.5h-2.3
			v-10.7c-1,0-1.9,0.2-2.6,0.6c-0.8,0.4-1.4,0.9-1.8,1.7c-0.4,0.7-0.7,1.6-0.7,2.5c0,1.1,0.3,2,0.8,2.8c0.5,0.8,1.2,1.4,2.1,1.8
			c0.8,0.4,1.7,0.6,2.7,0.6h1.5c1.3,0,2.4-0.2,3.3-0.7c0.9-0.5,1.6-1.1,2.1-1.9c0.5-0.8,0.7-1.8,0.7-2.9c0-0.7-0.1-1.3-0.3-1.9
			c-0.2-0.6-0.5-1.1-0.9-1.5c-0.4-0.4-0.9-0.7-1.5-1l0.7-2.6c0.9,0.3,1.7,0.7,2.3,1.4c0.7,0.6,1.2,1.4,1.5,2.4S28,300.5,28,301.6z"
			/>
		<path d="M17.1,287.6h10.5v2.7H10.2v-2.6h2.7v-0.2c-0.9-0.4-1.6-1-2.1-1.9c-0.5-0.8-0.8-1.9-0.8-3.2c0-1.2,0.2-2.2,0.7-3.1
			c0.5-0.9,1.2-1.6,2.2-2.1s2.2-0.7,3.7-0.7h11.1v2.7H16.7c-1.4,0-2.4,0.4-3.2,1.1s-1.2,1.7-1.2,2.9c0,0.9,0.2,1.6,0.6,2.3
			c0.4,0.7,0.9,1.2,1.6,1.6S16.1,287.6,17.1,287.6z"/>
		<path d="M27.6,262.6H10.2V260h2.7v-0.2c-0.9-0.4-1.7-1-2.2-1.8s-0.8-1.8-0.8-2.9c0-1.2,0.3-2.1,0.8-2.9c0.5-0.8,1.2-1.4,2.2-1.8
			v-0.2c-0.9-0.4-1.6-1.1-2.2-2c-0.5-0.9-0.8-2-0.8-3.2c0-1.6,0.5-2.8,1.5-3.8s2.5-1.5,4.5-1.5h11.7v2.7H16c-1.3,0-2.2,0.4-2.8,1.1
			c-0.6,0.7-0.8,1.5-0.8,2.5c0,1.2,0.4,2.2,1.1,2.9c0.7,0.7,1.7,1,2.8,1h11.4v2.7h-12c-1,0-1.8,0.3-2.4,1c-0.6,0.6-0.9,1.5-0.9,2.5
			c0,0.7,0.2,1.3,0.6,1.9c0.4,0.6,0.9,1.1,1.5,1.5s1.4,0.6,2.3,0.6h10.9V262.6z"/>
		<path d="M28,227.5c0,1.7-0.4,3.1-1.1,4.3s-1.8,2.2-3.1,2.8s-2.9,1-4.7,1s-3.4-0.3-4.7-1c-1.4-0.7-2.4-1.6-3.2-2.8
			s-1.2-2.6-1.2-4.1c0-0.9,0.2-1.8,0.5-2.7c0.3-0.9,0.8-1.7,1.5-2.4c0.7-0.7,1.6-1.3,2.7-1.7c1.1-0.4,2.5-0.6,4.1-0.6h1.1v13.5h-2.3
			V223c-1,0-1.9,0.2-2.6,0.6c-0.8,0.4-1.4,0.9-1.8,1.7c-0.4,0.7-0.7,1.6-0.7,2.5c0,1.1,0.3,2,0.8,2.8c0.5,0.8,1.2,1.4,2.1,1.8
			c0.8,0.4,1.7,0.6,2.7,0.6h1.5c1.3,0,2.4-0.2,3.3-0.7c0.9-0.5,1.6-1.1,2.1-1.9c0.5-0.8,0.7-1.8,0.7-2.9c0-0.7-0.1-1.3-0.3-1.9
			c-0.2-0.6-0.5-1.1-0.9-1.5c-0.4-0.4-0.9-0.7-1.5-1l0.7-2.6c0.9,0.3,1.7,0.7,2.3,1.4c0.7,0.6,1.2,1.4,1.5,2.4S28,226.3,28,227.5z"
			/>
		<path d="M6,215v-2.7h16.6c0.8,0,1.3-0.1,1.7-0.3s0.6-0.5,0.8-0.9c0.1-0.4,0.2-0.7,0.2-1.1c0-0.3,0-0.5-0.1-0.7s-0.1-0.3-0.1-0.5
			l2.4-0.5c0.1,0.2,0.1,0.4,0.2,0.8c0.1,0.3,0.1,0.7,0.1,1.2c0,0.8-0.2,1.5-0.5,2.2c-0.3,0.7-0.8,1.3-1.5,1.8s-1.5,0.7-2.5,0.7H6z
			 M10.2,208.5h2.3v9h-2.3V208.5z"/>
		<path d="M10.2,181.2l17.5,6.5v2.7l-17.5,6.5V194l13.9-4.8V189l-13.9-4.8V181.2z"/>
		<path d="M28,170.4c0,1.7-0.4,3.1-1.1,4.3s-1.8,2.2-3.1,2.8s-2.9,1-4.7,1s-3.4-0.3-4.7-1c-1.4-0.7-2.4-1.6-3.2-2.8
			s-1.2-2.6-1.2-4.1c0-0.9,0.2-1.8,0.5-2.7c0.3-0.9,0.8-1.7,1.5-2.4c0.7-0.7,1.6-1.3,2.7-1.7c1.1-0.4,2.5-0.6,4.1-0.6h1.1v13.5h-2.3
			v-10.7c-1,0-1.9,0.2-2.6,0.6c-0.8,0.4-1.4,0.9-1.8,1.7c-0.4,0.7-0.7,1.6-0.7,2.5c0,1.1,0.3,2,0.8,2.8c0.5,0.8,1.2,1.4,2.1,1.8
			c0.8,0.4,1.7,0.6,2.7,0.6h1.5c1.3,0,2.4-0.2,3.3-0.7c0.9-0.5,1.6-1.1,2.1-1.9c0.5-0.8,0.7-1.8,0.7-2.9c0-0.7-0.1-1.3-0.3-1.9
			c-0.2-0.6-0.5-1.1-0.9-1.5c-0.4-0.4-0.9-0.7-1.5-1l0.7-2.6c0.9,0.3,1.7,0.7,2.3,1.4c0.7,0.6,1.2,1.4,1.5,2.4S28,169.2,28,170.4z"
			/>
		<path d="M27.6,159H10.2v-2.6h2.6v-0.2c-0.9-0.3-1.6-0.9-2.1-1.7c-0.5-0.8-0.8-1.8-0.8-2.8c0-0.2,0-0.4,0-0.7c0-0.3,0-0.5,0-0.7
			h2.7c0,0.1-0.1,0.3-0.1,0.6c0,0.3-0.1,0.7-0.1,1c0,0.8,0.2,1.6,0.5,2.3c0.4,0.7,0.8,1.2,1.5,1.6s1.3,0.6,2.1,0.6h11V159z"/>
		<path d="M28,140.5c0,1.5-0.4,2.7-1.1,3.9c-0.7,1.1-1.8,2-3.1,2.6s-3,0.9-4.8,0.9c-1.8,0-3.4-0.3-4.8-0.9c-1.3-0.6-2.4-1.5-3.1-2.6
			c-0.7-1.1-1.1-2.4-1.1-3.9c0-1.1,0.2-2,0.6-2.7c0.4-0.7,0.8-1.2,1.3-1.5s0.9-0.6,1.2-0.8v-0.2H4.4v-2.7h23.3v2.6H25v0.3
			c0.3,0.2,0.7,0.5,1.2,0.8c0.5,0.4,0.9,0.9,1.3,1.6C27.8,138.5,28,139.4,28,140.5z M25.6,140.2c0-1.1-0.3-2-0.8-2.7
			c-0.6-0.7-1.3-1.3-2.4-1.7c-1-0.4-2.2-0.6-3.5-0.6c-1.3,0-2.4,0.2-3.4,0.6s-1.7,0.9-2.3,1.7c-0.5,0.7-0.8,1.7-0.8,2.8
			c0,1.1,0.3,2.1,0.9,2.8c0.6,0.8,1.4,1.3,2.4,1.7c1,0.4,2.1,0.6,3.3,0.6c1.2,0,2.4-0.2,3.4-0.6c1-0.4,1.8-1,2.4-1.7
			S25.6,141.3,25.6,140.2z"/>
		<path d="M28,120c0,1.7-0.4,3.1-1.1,4.3s-1.8,2.2-3.1,2.8s-2.9,1-4.7,1s-3.4-0.3-4.7-1c-1.4-0.7-2.4-1.6-3.2-2.8s-1.2-2.6-1.2-4.1
			c0-0.9,0.2-1.8,0.5-2.7c0.3-0.9,0.8-1.7,1.5-2.4c0.7-0.7,1.6-1.3,2.7-1.7c1.1-0.4,2.5-0.6,4.1-0.6h1.1v13.5h-2.3v-10.7
			c-1,0-1.9,0.2-2.6,0.6c-0.8,0.4-1.4,0.9-1.8,1.7c-0.4,0.7-0.7,1.6-0.7,2.5c0,1.1,0.3,2,0.8,2.8c0.5,0.8,1.2,1.4,2.1,1.8
			c0.8,0.4,1.7,0.6,2.7,0.6h1.5c1.3,0,2.4-0.2,3.3-0.7c0.9-0.5,1.6-1.1,2.1-1.9c0.5-0.8,0.7-1.8,0.7-2.9c0-0.7-0.1-1.3-0.3-1.9
			c-0.2-0.6-0.5-1.1-0.9-1.5c-0.4-0.4-0.9-0.7-1.5-1l0.7-2.6c0.9,0.3,1.7,0.7,2.3,1.4c0.7,0.6,1.2,1.4,1.5,2.4S28,118.8,28,120z"/>
		<path d="M28,101.3c0,1.7-0.4,3.1-1.1,4.3s-1.8,2.2-3.1,2.8s-2.9,1-4.7,1s-3.4-0.3-4.7-1c-1.4-0.7-2.4-1.6-3.2-2.8
			s-1.2-2.6-1.2-4.1c0-0.9,0.2-1.8,0.5-2.7c0.3-0.9,0.8-1.7,1.5-2.4c0.7-0.7,1.6-1.3,2.7-1.7c1.1-0.4,2.5-0.6,4.1-0.6h1.1v13.5h-2.3
			V96.8c-1,0-1.9,0.2-2.6,0.6c-0.8,0.4-1.4,0.9-1.8,1.7c-0.4,0.7-0.7,1.6-0.7,2.5c0,1.1,0.3,2,0.8,2.8c0.5,0.8,1.2,1.4,2.1,1.8
			c0.8,0.4,1.7,0.6,2.7,0.6h1.5c1.3,0,2.4-0.2,3.3-0.7c0.9-0.5,1.6-1.1,2.1-1.9c0.5-0.8,0.7-1.8,0.7-2.9c0-0.7-0.1-1.3-0.3-1.9
			c-0.2-0.6-0.5-1.1-0.9-1.5c-0.4-0.4-0.9-0.7-1.5-1l0.7-2.6c0.9,0.3,1.7,0.7,2.3,1.4c0.7,0.6,1.2,1.4,1.5,2.4S28,100.1,28,101.3z"
			/>
		<path d="M4.4,87.3h23.3V90H4.4V87.3z"/>
		<path d="M28,75.8c0,1.5-0.4,2.7-1.1,3.9c-0.7,1.1-1.8,2-3.1,2.6s-3,0.9-4.8,0.9c-1.8,0-3.4-0.3-4.8-0.9c-1.3-0.6-2.4-1.5-3.1-2.6
			c-0.7-1.1-1.1-2.4-1.1-3.9c0-1.1,0.2-2,0.6-2.7c0.4-0.7,0.8-1.2,1.3-1.5s0.9-0.6,1.2-0.8v-0.2H4.4v-2.7h23.3v2.6H25v0.3
			c0.3,0.2,0.7,0.5,1.2,0.8c0.5,0.4,0.9,0.9,1.3,1.6C27.8,73.8,28,74.7,28,75.8z M25.6,75.5c0-1.1-0.3-2-0.8-2.7
			c-0.6-0.7-1.3-1.3-2.4-1.7c-1-0.4-2.2-0.6-3.5-0.6c-1.3,0-2.4,0.2-3.4,0.6s-1.7,0.9-2.3,1.7c-0.5,0.7-0.8,1.7-0.8,2.8
			c0,1.1,0.3,2.1,0.9,2.8c0.6,0.8,1.4,1.3,2.4,1.7c1,0.4,2.1,0.6,3.3,0.6c1.2,0,2.4-0.2,3.4-0.6c1-0.4,1.8-1,2.4-1.7
			S25.6,76.6,25.6,75.5z"/>
		<path d="M17.1,59.9h10.5v2.7H4.4v-2.7h8.5v-0.2c-0.9-0.4-1.6-1-2.2-1.8S10,55.9,10,54.5c0-1.2,0.2-2.2,0.7-3.1s1.2-1.6,2.2-2.1
			s2.2-0.7,3.7-0.7h11.1v2.7H16.7c-1.4,0-2.5,0.4-3.2,1.1c-0.8,0.7-1.1,1.7-1.1,3c0,0.9,0.2,1.7,0.6,2.4s0.9,1.2,1.6,1.6
			C15.3,59.7,16.1,59.9,17.1,59.9z"/>
		<path d="M28,36.3c0,1.7-0.4,3.1-1.1,4.3s-1.8,2.2-3.1,2.8s-2.9,1-4.7,1s-3.4-0.3-4.7-1c-1.4-0.7-2.4-1.6-3.2-2.8S10,38.2,10,36.6
			c0-0.9,0.2-1.8,0.5-2.7c0.3-0.9,0.8-1.7,1.5-2.4c0.7-0.7,1.6-1.3,2.7-1.7c1.1-0.4,2.5-0.6,4.1-0.6h1.1v13.5h-2.3V31.8
			c-1,0-1.9,0.2-2.6,0.6c-0.8,0.4-1.4,0.9-1.8,1.7c-0.4,0.7-0.7,1.6-0.7,2.5c0,1.1,0.3,2,0.8,2.8c0.5,0.8,1.2,1.4,2.1,1.8
			c0.8,0.4,1.7,0.6,2.7,0.6h1.5c1.3,0,2.4-0.2,3.3-0.7c0.9-0.5,1.6-1.1,2.1-1.9c0.5-0.8,0.7-1.8,0.7-2.9c0-0.7-0.1-1.3-0.3-1.9
			c-0.2-0.6-0.5-1.1-0.9-1.5c-0.4-0.4-0.9-0.7-1.5-1l0.7-2.6c0.9,0.3,1.7,0.7,2.3,1.4c0.7,0.6,1.2,1.4,1.5,2.4S28,35.1,28,36.3z"/>
		<path d="M7.3,23.6c0,0.5-0.2,1-0.5,1.3c-0.4,0.4-0.8,0.6-1.3,0.6S4.5,25.4,4.2,25s-0.5-0.8-0.5-1.3s0.2-1,0.5-1.3s0.8-0.6,1.3-0.6
			s0.9,0.2,1.3,0.6C7.1,22.7,7.3,23.1,7.3,23.6z M27.6,25H10.2v-2.7h17.5V25z"/>
		<path d="M28,10.8c0,1.5-0.4,2.7-1.1,3.9c-0.7,1.1-1.8,2-3.1,2.6s-3,0.9-4.8,0.9c-1.8,0-3.4-0.3-4.8-0.9c-1.3-0.6-2.4-1.5-3.1-2.6
			c-0.7-1.1-1.1-2.4-1.1-3.9c0-1.1,0.2-2,0.6-2.7c0.4-0.7,0.8-1.2,1.3-1.5s0.9-0.6,1.2-0.8V5.5H4.4V2.8h23.3v2.6H25v0.3
			c0.3,0.2,0.7,0.5,1.2,0.8c0.5,0.4,0.9,0.9,1.3,1.6C27.8,8.8,28,9.7,28,10.8z M25.6,10.5c0-1.1-0.3-2-0.8-2.7
			C24.2,7,23.4,6.4,22.4,6c-1-0.4-2.2-0.6-3.5-0.6c-1.3,0-2.4,0.2-3.4,0.6S13.7,7,13.2,7.7c-0.5,0.7-0.8,1.7-0.8,2.8
			c0,1.1,0.3,2.1,0.9,2.8c0.6,0.8,1.4,1.3,2.4,1.7c1,0.4,2.1,0.6,3.3,0.6c1.2,0,2.4-0.2,3.4-0.6c1-0.4,1.8-1,2.4-1.7
			S25.6,11.6,25.6,10.5z"/>
	</g>
</g>
</svg>
