<svg width="19" height="19" viewBox="0 0 19 19" fill="none" xmlns="http://www.w3.org/2000/svg">
<g clip-path="url(#clip0_168_4482)">
<path fill-rule="evenodd" clip-rule="evenodd" d="M9.50033 2.37484C5.5653 2.37484 2.37533 5.56481 2.37533 9.49984C2.37533 13.4349 5.5653 16.6248 9.50033 16.6248C13.4354 16.6248 16.6253 13.4349 16.6253 9.49984C16.6253 5.56481 13.4354 2.37484 9.50033 2.37484ZM0.791992 9.49984C0.791992 4.69036 4.69085 0.791504 9.50033 0.791504C14.3098 0.791504 18.2087 4.69036 18.2087 9.49984C18.2087 14.3093 14.3098 18.2082 9.50033 18.2082C4.69085 18.2082 0.791992 14.3093 0.791992 9.49984ZM8.70866 6.33317C8.70866 5.89595 9.0631 5.5415 9.50033 5.5415H9.50824C9.94547 5.5415 10.2999 5.89595 10.2999 6.33317C10.2999 6.7704 9.94547 7.12484 9.50824 7.12484H9.50033C9.0631 7.12484 8.70866 6.7704 8.70866 6.33317ZM9.50033 8.70817C9.93755 8.70817 10.292 9.06261 10.292 9.49984V12.6665C10.292 13.1037 9.93755 13.4582 9.50033 13.4582C9.0631 13.4582 8.70866 13.1037 8.70866 12.6665V9.49984C8.70866 9.06261 9.0631 8.70817 9.50033 8.70817Z" fill="black"/>
</g>
<defs>
<clipPath id="clip0_168_4482">
<rect width="19" height="19" fill="white"/>
</clipPath>
</defs>
</svg>
