<svg width="49" height="49" viewBox="0 0 49 49" fill="none" xmlns="http://www.w3.org/2000/svg">
<circle cx="24.5" cy="24.5" r="24.5" fill="#C6C6C6"/>
<path d="M22.7556 30.8163V30.5549C22.7556 28.8623 22.9028 27.5617 23.1971 26.6531C23.5033 25.7321 23.9389 25.004 24.504 24.4688C25.081 23.9212 25.7638 23.386 26.5527 22.8633C27.3298 22.3779 27.9773 21.7743 28.4954 21.0524C29.0134 20.3181 29.2725 19.4406 29.2725 18.4201C29.2725 17.6235 29.0959 16.9328 28.7426 16.3478C28.3894 15.7628 27.9126 15.3085 27.3121 14.985C26.7116 14.6614 26.0464 14.4996 25.3164 14.4996C24.6689 14.4996 24.0449 14.6427 23.4444 14.9289C22.8439 15.2152 22.3435 15.6633 21.9432 16.2731C21.5429 16.8705 21.3192 17.6484 21.2721 18.6067H17.3867C17.4338 16.9888 17.8165 15.6197 18.5347 14.4996C19.2529 13.367 20.2007 12.5144 21.3781 11.9419C22.5672 11.3569 23.88 11.0645 25.3164 11.0645C26.9059 11.0645 28.2893 11.3756 29.4667 11.9979C30.6441 12.6202 31.5566 13.4852 32.2042 14.5929C32.8635 15.7006 33.1932 16.9888 33.1932 18.4574C33.1932 19.9883 32.8635 21.2889 32.2042 22.3592C31.5448 23.4171 30.6441 24.3195 29.5021 25.0662C28.7721 25.5267 28.1775 25.981 27.7183 26.4291C27.2591 26.8771 26.9236 27.4185 26.7116 28.0533C26.5115 28.6756 26.4114 29.5095 26.4114 30.5549V30.8163H22.7556ZM24.61 39.5161C23.8682 39.5161 23.2442 39.2609 22.738 38.7506C22.2434 38.2279 21.9962 37.5869 21.9962 36.8277C21.9962 36.0561 22.2434 35.4151 22.738 34.9048C23.2442 34.3821 23.8682 34.1207 24.61 34.1207C25.3518 34.1207 25.9699 34.3821 26.4644 34.9048C26.9707 35.4151 27.2238 36.0561 27.2238 36.8277C27.2238 37.5869 26.9707 38.2279 26.4644 38.7506C25.9699 39.2609 25.3518 39.5161 24.61 39.5161Z" fill="white"/>
</svg>
